<mxfile host="app.diagrams.net" modified="2021-01-02T11:40:17.804Z" agent="5.0 (Macintosh)" etag="fJOA0RSRO54UC7MLeyCC" version="14.1.7" type="github">
  <diagram id="g1D-myuFOA2ooEtS3bkw" name="Page-1">
    <mxGraphModel dx="2160" dy="1977" grid="1" gridSize="10" guides="1" tooltips="1" connect="1" arrows="1" fold="1" page="1" pageScale="1" pageWidth="850" pageHeight="1100" math="0" shadow="0">
      <root>
        <mxCell id="0" />
        <mxCell id="1" parent="0" />
        <mxCell id="Yp41wcnjlGWzB2yIVQ8q-35" value="" style="rounded=0;whiteSpace=wrap;html=1;fillColor=#ffe6cc;strokeColor=#d79b00;" vertex="1" parent="1">
          <mxGeometry x="-30" y="650" width="510" height="130" as="geometry" />
        </mxCell>
        <mxCell id="Yp41wcnjlGWzB2yIVQ8q-30" value="" style="rounded=0;whiteSpace=wrap;html=1;fillColor=#f8cecc;strokeColor=#b85450;" vertex="1" parent="1">
          <mxGeometry x="-320" y="440" width="560" height="190" as="geometry" />
        </mxCell>
        <mxCell id="Yp41wcnjlGWzB2yIVQ8q-23" value="" style="rounded=0;whiteSpace=wrap;html=1;fillColor=#fff2cc;strokeColor=#d6b656;" vertex="1" parent="1">
          <mxGeometry x="-600" y="-20" width="1210" height="440" as="geometry" />
        </mxCell>
        <mxCell id="Yp41wcnjlGWzB2yIVQ8q-22" value="" style="rounded=0;whiteSpace=wrap;html=1;fillColor=#dae8fc;strokeColor=#6c8ebf;" vertex="1" parent="1">
          <mxGeometry x="300" width="300" height="410" as="geometry" />
        </mxCell>
        <mxCell id="Yp41wcnjlGWzB2yIVQ8q-21" value="" style="rounded=0;whiteSpace=wrap;html=1;fillColor=#e1d5e7;strokeColor=#9673a6;" vertex="1" parent="1">
          <mxGeometry x="-590" y="-10" width="550" height="420" as="geometry" />
        </mxCell>
        <mxCell id="Yp41wcnjlGWzB2yIVQ8q-1" value="&lt;div&gt;&amp;lt;AForecastLoader&amp;gt;&lt;/div&gt;&lt;div&gt;&lt;br&gt;&lt;/div&gt;&lt;div&gt;-load(completion:)&lt;br&gt;&lt;/div&gt;" style="rounded=0;whiteSpace=wrap;html=1;" vertex="1" parent="1">
          <mxGeometry x="40" y="320" width="120" height="60" as="geometry" />
        </mxCell>
        <mxCell id="Yp41wcnjlGWzB2yIVQ8q-3" style="edgeStyle=orthogonalEdgeStyle;rounded=0;orthogonalLoop=1;jettySize=auto;html=1;exitX=0.5;exitY=1;exitDx=0;exitDy=0;dashed=1;endArrow=block;endFill=0;" edge="1" parent="1" source="Yp41wcnjlGWzB2yIVQ8q-2" target="Yp41wcnjlGWzB2yIVQ8q-1">
          <mxGeometry relative="1" as="geometry" />
        </mxCell>
        <mxCell id="Yp41wcnjlGWzB2yIVQ8q-4" style="edgeStyle=orthogonalEdgeStyle;rounded=0;orthogonalLoop=1;jettySize=auto;html=1;entryX=0.75;entryY=0;entryDx=0;entryDy=0;endArrow=block;endFill=1;exitX=1;exitY=0.5;exitDx=0;exitDy=0;" edge="1" parent="1" source="Yp41wcnjlGWzB2yIVQ8q-2" target="Yp41wcnjlGWzB2yIVQ8q-1">
          <mxGeometry relative="1" as="geometry">
            <mxPoint x="130" y="244" as="sourcePoint" />
          </mxGeometry>
        </mxCell>
        <mxCell id="Yp41wcnjlGWzB2yIVQ8q-5" style="edgeStyle=orthogonalEdgeStyle;rounded=0;orthogonalLoop=1;jettySize=auto;html=1;endArrow=block;endFill=1;exitX=1;exitY=0.667;exitDx=0;exitDy=0;exitPerimeter=0;entryX=0.892;entryY=0.033;entryDx=0;entryDy=0;entryPerimeter=0;" edge="1" parent="1" source="Yp41wcnjlGWzB2yIVQ8q-2" target="Yp41wcnjlGWzB2yIVQ8q-1">
          <mxGeometry relative="1" as="geometry">
            <mxPoint x="151" y="340" as="targetPoint" />
          </mxGeometry>
        </mxCell>
        <mxCell id="Yp41wcnjlGWzB2yIVQ8q-19" style="edgeStyle=orthogonalEdgeStyle;rounded=0;orthogonalLoop=1;jettySize=auto;html=1;endArrow=block;endFill=1;exitX=0.045;exitY=0.889;exitDx=0;exitDy=0;exitPerimeter=0;" edge="1" parent="1" source="Yp41wcnjlGWzB2yIVQ8q-2" target="Yp41wcnjlGWzB2yIVQ8q-14">
          <mxGeometry relative="1" as="geometry" />
        </mxCell>
        <mxCell id="Yp41wcnjlGWzB2yIVQ8q-2" value="&lt;div&gt;ARemoteWithLocalForecastLoader&lt;/div&gt;&lt;div&gt;&lt;br&gt;&lt;/div&gt;&lt;div&gt;-remoteLoader: AForecastLoader&lt;/div&gt;&lt;div&gt;-localLoader: AForecastLoader&lt;/div&gt;&lt;div&gt;-localSaver: AForcastCacheSaver&lt;/div&gt;" style="rounded=0;whiteSpace=wrap;html=1;" vertex="1" parent="1">
          <mxGeometry x="-10" y="130" width="220" height="90" as="geometry" />
        </mxCell>
        <mxCell id="Yp41wcnjlGWzB2yIVQ8q-7" style="edgeStyle=orthogonalEdgeStyle;rounded=0;orthogonalLoop=1;jettySize=auto;html=1;entryX=1;entryY=0.5;entryDx=0;entryDy=0;endArrow=block;endFill=0;dashed=1;exitX=0;exitY=0.5;exitDx=0;exitDy=0;" edge="1" parent="1" source="Yp41wcnjlGWzB2yIVQ8q-6" target="Yp41wcnjlGWzB2yIVQ8q-1">
          <mxGeometry relative="1" as="geometry">
            <Array as="points">
              <mxPoint x="270" y="350" />
              <mxPoint x="270" y="350" />
            </Array>
          </mxGeometry>
        </mxCell>
        <mxCell id="Yp41wcnjlGWzB2yIVQ8q-9" style="edgeStyle=orthogonalEdgeStyle;rounded=0;orthogonalLoop=1;jettySize=auto;html=1;entryX=0.5;entryY=1;entryDx=0;entryDy=0;endArrow=block;endFill=1;" edge="1" parent="1" source="Yp41wcnjlGWzB2yIVQ8q-6" target="Yp41wcnjlGWzB2yIVQ8q-8">
          <mxGeometry relative="1" as="geometry">
            <mxPoint x="470" y="190" as="sourcePoint" />
          </mxGeometry>
        </mxCell>
        <mxCell id="Yp41wcnjlGWzB2yIVQ8q-6" value="&lt;div&gt;ARemoteForecastLoader&lt;/div&gt;&lt;div&gt;&lt;br&gt;&lt;/div&gt;&lt;div&gt;-httpClient: HTTPClient&lt;/div&gt;&lt;div&gt;-url: URL&lt;br&gt;&lt;/div&gt;" style="rounded=0;whiteSpace=wrap;html=1;" vertex="1" parent="1">
          <mxGeometry x="375" y="315" width="170" height="70" as="geometry" />
        </mxCell>
        <mxCell id="Yp41wcnjlGWzB2yIVQ8q-8" value="&lt;div&gt;&amp;lt;HTTPClient&amp;gt;&lt;/div&gt;&lt;div&gt;&lt;br&gt;&lt;/div&gt;&lt;div&gt;-get(from url: , completion:)&lt;br&gt;&lt;/div&gt;" style="rounded=0;whiteSpace=wrap;html=1;" vertex="1" parent="1">
          <mxGeometry x="370" y="160" width="180" height="60" as="geometry" />
        </mxCell>
        <mxCell id="Yp41wcnjlGWzB2yIVQ8q-11" style="edgeStyle=orthogonalEdgeStyle;rounded=0;orthogonalLoop=1;jettySize=auto;html=1;exitX=0.5;exitY=1;exitDx=0;exitDy=0;entryX=0.5;entryY=0;entryDx=0;entryDy=0;endArrow=block;endFill=0;dashed=1;" edge="1" parent="1" source="Yp41wcnjlGWzB2yIVQ8q-10" target="Yp41wcnjlGWzB2yIVQ8q-8">
          <mxGeometry relative="1" as="geometry" />
        </mxCell>
        <mxCell id="Yp41wcnjlGWzB2yIVQ8q-10" value="&lt;div&gt;AWeatherHTTPClient&lt;/div&gt;&lt;div&gt;&lt;br&gt;&lt;/div&gt;&lt;div&gt;-session: URLSession&lt;br&gt;&lt;/div&gt;" style="rounded=0;whiteSpace=wrap;html=1;" vertex="1" parent="1">
          <mxGeometry x="370" y="60" width="180" height="60" as="geometry" />
        </mxCell>
        <mxCell id="Yp41wcnjlGWzB2yIVQ8q-13" style="edgeStyle=orthogonalEdgeStyle;rounded=0;orthogonalLoop=1;jettySize=auto;html=1;exitX=1;exitY=0.5;exitDx=0;exitDy=0;dashed=1;endArrow=block;endFill=0;" edge="1" parent="1" source="Yp41wcnjlGWzB2yIVQ8q-12" target="Yp41wcnjlGWzB2yIVQ8q-1">
          <mxGeometry relative="1" as="geometry" />
        </mxCell>
        <mxCell id="Yp41wcnjlGWzB2yIVQ8q-15" style="edgeStyle=orthogonalEdgeStyle;rounded=0;orthogonalLoop=1;jettySize=auto;html=1;dashed=1;endArrow=block;endFill=0;entryX=0.5;entryY=1;entryDx=0;entryDy=0;" edge="1" parent="1" source="Yp41wcnjlGWzB2yIVQ8q-12" target="Yp41wcnjlGWzB2yIVQ8q-14">
          <mxGeometry relative="1" as="geometry">
            <mxPoint x="-80" y="240" as="targetPoint" />
          </mxGeometry>
        </mxCell>
        <mxCell id="Yp41wcnjlGWzB2yIVQ8q-17" style="edgeStyle=orthogonalEdgeStyle;rounded=0;orthogonalLoop=1;jettySize=auto;html=1;endArrow=block;endFill=1;exitX=-0.005;exitY=0.629;exitDx=0;exitDy=0;exitPerimeter=0;" edge="1" parent="1" source="Yp41wcnjlGWzB2yIVQ8q-12" target="Yp41wcnjlGWzB2yIVQ8q-16">
          <mxGeometry relative="1" as="geometry" />
        </mxCell>
        <mxCell id="Yp41wcnjlGWzB2yIVQ8q-12" value="&lt;div&gt;ALocalForecastLoader&lt;/div&gt;&lt;div&gt;&lt;br&gt;&lt;/div&gt;&lt;div&gt;-store: CacheStore&lt;br&gt;&lt;/div&gt;&lt;div&gt;-cache(item: , completion:)&lt;br&gt;&lt;/div&gt;" style="rounded=0;whiteSpace=wrap;html=1;" vertex="1" parent="1">
          <mxGeometry x="-360" y="315" width="190" height="70" as="geometry" />
        </mxCell>
        <mxCell id="Yp41wcnjlGWzB2yIVQ8q-14" value="&amp;lt;AForcastCacheSaver&amp;gt;&lt;div&gt;&lt;br&gt;&lt;/div&gt;&lt;div&gt;-save(_ item: , completion: )&lt;br&gt;&lt;/div&gt;" style="rounded=0;whiteSpace=wrap;html=1;" vertex="1" parent="1">
          <mxGeometry x="-280" y="145" width="190" height="60" as="geometry" />
        </mxCell>
        <mxCell id="Yp41wcnjlGWzB2yIVQ8q-16" value="&lt;div&gt;&amp;lt;CacheStore&amp;gt;&lt;/div&gt;&lt;div&gt;&lt;br&gt;&lt;/div&gt;&lt;div&gt;-deleteCacheFeed(completion: )&lt;br&gt;&lt;/div&gt;&lt;div&gt;-insert(_ item: , completion: )&lt;br&gt;&lt;/div&gt;&lt;div&gt;-retrieve(completion: )&lt;br&gt;&lt;/div&gt;" style="rounded=0;whiteSpace=wrap;html=1;" vertex="1" parent="1">
          <mxGeometry x="-550" y="140" width="240" height="80" as="geometry" />
        </mxCell>
        <mxCell id="Yp41wcnjlGWzB2yIVQ8q-20" style="edgeStyle=orthogonalEdgeStyle;rounded=0;orthogonalLoop=1;jettySize=auto;html=1;entryX=0.5;entryY=0;entryDx=0;entryDy=0;endArrow=block;endFill=0;dashed=1;" edge="1" parent="1" source="Yp41wcnjlGWzB2yIVQ8q-18" target="Yp41wcnjlGWzB2yIVQ8q-16">
          <mxGeometry relative="1" as="geometry" />
        </mxCell>
        <mxCell id="Yp41wcnjlGWzB2yIVQ8q-18" value="&lt;div&gt;AWeatherCacheStore&lt;/div&gt;&lt;div&gt;&lt;br&gt;&lt;/div&gt;&lt;div&gt;-userDefaults: UserDefaults&lt;br&gt;&lt;/div&gt;" style="rounded=0;whiteSpace=wrap;html=1;" vertex="1" parent="1">
          <mxGeometry x="-525" y="20" width="190" height="60" as="geometry" />
        </mxCell>
        <mxCell id="Yp41wcnjlGWzB2yIVQ8q-24" value="&lt;div&gt;&amp;lt;ForecastLoader&amp;gt;&lt;/div&gt;&lt;div&gt;&lt;br&gt;&lt;/div&gt;&lt;div&gt;load(completion: )&lt;br&gt;&lt;/div&gt;" style="rounded=0;whiteSpace=wrap;html=1;" vertex="1" parent="1">
          <mxGeometry x="40" y="560" width="120" height="60" as="geometry" />
        </mxCell>
        <mxCell id="Yp41wcnjlGWzB2yIVQ8q-27" style="edgeStyle=orthogonalEdgeStyle;rounded=0;orthogonalLoop=1;jettySize=auto;html=1;entryX=0.5;entryY=1;entryDx=0;entryDy=0;endArrow=block;endFill=1;" edge="1" parent="1" source="Yp41wcnjlGWzB2yIVQ8q-25" target="Yp41wcnjlGWzB2yIVQ8q-1">
          <mxGeometry relative="1" as="geometry" />
        </mxCell>
        <mxCell id="Yp41wcnjlGWzB2yIVQ8q-28" style="edgeStyle=orthogonalEdgeStyle;rounded=0;orthogonalLoop=1;jettySize=auto;html=1;dashed=1;endArrow=block;endFill=0;" edge="1" parent="1" source="Yp41wcnjlGWzB2yIVQ8q-25" target="Yp41wcnjlGWzB2yIVQ8q-24">
          <mxGeometry relative="1" as="geometry" />
        </mxCell>
        <mxCell id="Yp41wcnjlGWzB2yIVQ8q-29" style="edgeStyle=orthogonalEdgeStyle;rounded=0;orthogonalLoop=1;jettySize=auto;html=1;endArrow=block;endFill=1;" edge="1" parent="1" source="Yp41wcnjlGWzB2yIVQ8q-25" target="Yp41wcnjlGWzB2yIVQ8q-26">
          <mxGeometry relative="1" as="geometry" />
        </mxCell>
        <mxCell id="Yp41wcnjlGWzB2yIVQ8q-25" value="&lt;div&gt;ForecastRepository&lt;/div&gt;&lt;div&gt;&lt;br&gt;&lt;/div&gt;&lt;div&gt;-loader: AForecastLoader&lt;/div&gt;" style="rounded=0;whiteSpace=wrap;html=1;" vertex="1" parent="1">
          <mxGeometry x="6" y="460" width="188" height="60" as="geometry" />
        </mxCell>
        <mxCell id="Yp41wcnjlGWzB2yIVQ8q-26" value="&lt;div&gt;Mapper&lt;/div&gt;&lt;div&gt;&lt;br&gt;&lt;/div&gt;&lt;div&gt;-map(_ forecast: ) -&amp;gt; ForecastRoot&lt;br&gt;&lt;/div&gt;" style="rounded=0;whiteSpace=wrap;html=1;" vertex="1" parent="1">
          <mxGeometry x="-290" y="460" width="240" height="60" as="geometry" />
        </mxCell>
        <mxCell id="Yp41wcnjlGWzB2yIVQ8q-32" style="edgeStyle=orthogonalEdgeStyle;rounded=0;orthogonalLoop=1;jettySize=auto;html=1;entryX=0.5;entryY=1;entryDx=0;entryDy=0;endArrow=block;endFill=1;" edge="1" parent="1" source="Yp41wcnjlGWzB2yIVQ8q-31" target="Yp41wcnjlGWzB2yIVQ8q-24">
          <mxGeometry relative="1" as="geometry" />
        </mxCell>
        <mxCell id="Yp41wcnjlGWzB2yIVQ8q-34" style="edgeStyle=orthogonalEdgeStyle;rounded=0;orthogonalLoop=1;jettySize=auto;html=1;entryX=0;entryY=0.5;entryDx=0;entryDy=0;endArrow=block;endFill=1;" edge="1" parent="1" source="Yp41wcnjlGWzB2yIVQ8q-31" target="Yp41wcnjlGWzB2yIVQ8q-33">
          <mxGeometry relative="1" as="geometry" />
        </mxCell>
        <mxCell id="Yp41wcnjlGWzB2yIVQ8q-31" value="&lt;div&gt;DailyForecastViewController&lt;/div&gt;&lt;div&gt;&lt;br&gt;&lt;/div&gt;&lt;div&gt;-forecastLoader: ForecastLoader&lt;br&gt;&lt;/div&gt;" style="rounded=0;whiteSpace=wrap;html=1;" vertex="1" parent="1">
          <mxGeometry y="680" width="200" height="70" as="geometry" />
        </mxCell>
        <mxCell id="Yp41wcnjlGWzB2yIVQ8q-33" value="ForecastDetailViewController" style="rounded=0;whiteSpace=wrap;html=1;" vertex="1" parent="1">
          <mxGeometry x="280" y="685" width="180" height="60" as="geometry" />
        </mxCell>
      </root>
    </mxGraphModel>
  </diagram>
</mxfile>
